<svg xmlns="http://www.w3.org/2000/svg" xmlns:xlink="http://www.w3.org/1999/xlink" width="500" zoomAndPan="magnify" viewBox="0 0 375 374.999991" height="500" preserveAspectRatio="xMidYMid meet" version="1.0"><defs><clipPath id="a4438294b7"><path d="M 0 0 L 111.558594 0 L 111.558594 111.546875 L 0 111.546875 Z M 0 0 " clip-rule="nonzero"/></clipPath><clipPath id="e0760b1b3f"><path d="M 0 263.441406 L 111.558594 263.441406 L 111.558594 375 L 0 375 Z M 0 263.441406 " clip-rule="nonzero"/></clipPath><clipPath id="0913ba9525"><path d="M 0 131.722656 L 111.472656 131.722656 L 111.472656 243.277344 L 0 243.277344 Z M 0 131.722656 " clip-rule="nonzero"/></clipPath><clipPath id="f542ad2a4f"><path d="M 131.722656 0 L 243.277344 0 L 243.277344 111.546875 L 131.722656 111.546875 Z M 131.722656 0 " clip-rule="nonzero"/></clipPath><clipPath id="02935acdbe"><path d="M 263.441406 0 L 375 0 L 375 111.472656 L 263.441406 111.472656 Z M 263.441406 0 " clip-rule="nonzero"/></clipPath><clipPath id="cca497b4c1"><path d="M 131.722656 131.722656 L 243.277344 131.722656 L 243.277344 243.277344 L 131.722656 243.277344 Z M 131.722656 131.722656 " clip-rule="nonzero"/></clipPath><clipPath id="a0ca2c8be2"><path d="M 263.527344 131.722656 L 375 131.722656 L 375 243.277344 L 263.527344 243.277344 Z M 263.527344 131.722656 " clip-rule="nonzero"/></clipPath><clipPath id="bbb28dfead"><path d="M 131.722656 263.441406 L 243.277344 263.441406 L 243.277344 375 L 131.722656 375 Z M 131.722656 263.441406 " clip-rule="nonzero"/></clipPath><clipPath id="073bdea32d"><path d="M 263.441406 263.441406 L 375 263.441406 L 375 375 L 263.441406 375 Z M 263.441406 263.441406 " clip-rule="nonzero"/></clipPath></defs><g clip-path="url(#a4438294b7)"><path fill="#f6f5e7" d="M 0 -0.0117188 L 111.558594 -0.0117188 L 111.558594 111.546875 L 0 111.546875 Z M 0 -0.0117188 " fill-opacity="1" fill-rule="nonzero"/></g><g clip-path="url(#e0760b1b3f)"><path fill="#f6f5e7" d="M 0 263.441406 L 111.558594 263.441406 L 111.558594 375 L 0 375 Z M 0 263.441406 " fill-opacity="1" fill-rule="nonzero"/></g><g clip-path="url(#0913ba9525)"><path fill="#f6f5e7" d="M -0.0859375 131.722656 L 111.472656 131.722656 L 111.472656 243.277344 L -0.0859375 243.277344 Z M -0.0859375 131.722656 " fill-opacity="1" fill-rule="nonzero"/></g><g clip-path="url(#f542ad2a4f)"><path fill="#f6f5e7" d="M 131.722656 -0.0117188 L 243.277344 -0.0117188 L 243.277344 111.546875 L 131.722656 111.546875 Z M 131.722656 -0.0117188 " fill-opacity="1" fill-rule="nonzero"/></g><g clip-path="url(#02935acdbe)"><path fill="#a6a6a6" d="M 263.441406 -0.0859375 L 375 -0.0859375 L 375 111.472656 L 263.441406 111.472656 Z M 263.441406 -0.0859375 " fill-opacity="1" fill-rule="nonzero"/></g><g clip-path="url(#cca497b4c1)"><path fill="#a6a6a6" d="M 131.722656 131.722656 L 243.277344 131.722656 L 243.277344 243.277344 L 131.722656 243.277344 Z M 131.722656 131.722656 " fill-opacity="1" fill-rule="nonzero"/></g><g clip-path="url(#a0ca2c8be2)"><path fill="#a6a6a6" d="M 263.527344 131.722656 L 375.085938 131.722656 L 375.085938 243.277344 L 263.527344 243.277344 Z M 263.527344 131.722656 " fill-opacity="1" fill-rule="nonzero"/></g><g clip-path="url(#bbb28dfead)"><path fill="#a6a6a6" d="M 131.722656 263.441406 L 243.277344 263.441406 L 243.277344 375 L 131.722656 375 Z M 131.722656 263.441406 " fill-opacity="1" fill-rule="nonzero"/></g><g clip-path="url(#073bdea32d)"><path fill="#f6f5e7" d="M 263.441406 263.441406 L 375 263.441406 L 375 375 L 263.441406 375 Z M 263.441406 263.441406 " fill-opacity="1" fill-rule="nonzero"/></g></svg>